<svg xmlns="http://www.w3.org/2000/svg" xmlns:xlink="http://www.w3.org/1999/xlink" viewBox="0 0 80.19 92.6"><defs><style>.cls-1{fill:url(#Безымянный_градиент_11);}</style><linearGradient id="Безымянный_градиент_11" x1="40.1" y1="1.4" x2="40.1" y2="94" gradientTransform="matrix(1, 0, 0, -1, 0, 94)" gradientUnits="userSpaceOnUse"><stop offset="0" stop-color="#3122ff"/><stop offset="1" stop-color="#22d3ff"/></linearGradient></defs><g id="Слой_2" data-name="Слой 2"><g id="Слой_1-2" data-name="Слой 1"><g id="Слой_2-2" data-name="Слой 2"><g id="OBJECTS"><path class="cls-1" d="M40.1,0,0,23.15v46.3L40.1,92.6,80.19,69.45V23.15ZM76.2,67.14,40.1,88,4,67.14V25.46L40.1,4.61,76.2,25.46Zm-23-37.53-4.73-.05c-3.71,0-4.45,1.71-4.47,4.3l-.07,5.7,8.85.09-1.25,8.92-7.69-.08-.25,22.92-9.22-.1.24-22.92-7.71-.08.1-8.94,7.71.09.07-6.59c.08-7.64,4.8-11.75,11.62-11.68a63.55,63.55,0,0,1,6.89.43Z"/></g></g></g></g></svg>