<svg xmlns="http://www.w3.org/2000/svg" xmlns:xlink="http://www.w3.org/1999/xlink" viewBox="0 0 80.19 92.6"><defs><style>.cls-1{fill:url(#Безымянный_градиент_10);}.cls-2{fill:url(#Безымянный_градиент_12);}</style><linearGradient id="Безымянный_градиент_10" x1="40.1" y1="1.4" x2="40.1" y2="94" gradientTransform="matrix(1, 0, 0, -1, 0, 94)" gradientUnits="userSpaceOnUse"><stop offset="0" stop-color="#3122ff"/><stop offset="1" stop-color="#22d3ff"/></linearGradient><linearGradient id="Безымянный_градиент_12" x1="36.91" y1="26.76" x2="36.91" y2="63.74" gradientTransform="matrix(1, 0, 0, -1, 0, 94)" gradientUnits="userSpaceOnUse"><stop offset="0.01" stop-color="#3122ff"/><stop offset="1" stop-color="#22d3ff"/></linearGradient></defs><g id="Слой_2" data-name="Слой 2"><g id="Слой_1-2" data-name="Слой 1"><g id="Слой_2-2" data-name="Слой 2"><g id="OBJECTS"><path class="cls-1" d="M40.1,0,0,23.15v46.3L40.1,92.6,80.19,69.45V23.15ZM76.2,66.58,40.1,88,4,67.14V25.46L40.1,4.61,76.2,24.89Z"/><path class="cls-2" d="M30.45,63.37l.22-8.13a1.34,1.34,0,0,1,.43-.94l17.9-16a.14.14,0,0,0,0-.2.14.14,0,0,0-.14,0L27.29,51.79a1.35,1.35,0,0,1-1.19.11l-9.49-3.76a1.31,1.31,0,0,1-.74-1.7,1.28,1.28,0,0,1,.74-.74L56.15,30.35a1.33,1.33,0,0,1,1.12.08l.1.06a1.32,1.32,0,0,1,.64,1.4L51.06,66.16A1.32,1.32,0,0,1,49,67L38.78,59.9a1.32,1.32,0,0,0-1.65.14l-4.46,4.31a1.31,1.31,0,0,1-2.22-1Z"/></g></g></g></g></svg>