<svg xmlns="http://www.w3.org/2000/svg" viewBox="0 0 260.32 254.9"><defs><style>.cls-1{fill:#fff;}.cls-2{fill:#b3b3b3;}</style></defs><g id="Слой_2" data-name="Слой 2"><g id="Слой_4" data-name="Слой 4"><path class="cls-1" d="M81.85,40.17c10.34-5.1,23.62-24.76,24.89-28.72s0-9.58,0-9.58L91.55,15.28s-19.28,14-27.7,16.08S28.74,34,21.47,57.53,17.38,72.73.27,76.81c0,0-3.7,17.62,16.09,31.15,0,0,5.62,1.53,17.11-6.51s17.23-.38,34.34-7.66,16.85-25.79,17-30S93.08,50.9,93.08,50.9s.13-2.3-6.12-1.79-15.07,1.27-15.07,1.27S71.51,45.28,81.85,40.17ZM30.91,76.81c-.38,0,2.17-20.3,25-17.74C55.93,59.07,53.26,78.15,30.91,76.81Z"/><path class="cls-1" d="M46.61,27.15s14.94-4.08,17.88-5.36,8.3-16.6,8.17-19-2.3-4.34-7-.9S47.13,23.83,46.61,27.15Z"/><path class="cls-2" d="M81.21,94.55c-.44-.46,6.26-8.68,7.28-8.93s3.83,5.23,3.57,12.25C92.06,97.87,83.89,97.36,81.21,94.55Z"/><path class="cls-1" d="M74.32,102.6s-7.28,8-5,10.59l18.38,3.58s4.25-8.3,4.36-11.24C92.08,105.53,76.36,104.38,74.32,102.6Z"/><path class="cls-1" d="M60.79,118.68s-9.07,8.68-8.81,12c0,0,18.25,3.7,22.21,6.39,0,0,6.73-9.13,8.08-12a3,3,0,0,0,.22-.59C82.87,122.51,63.72,120.47,60.79,118.68Z"/><path class="cls-1" d="M45.08,139.87s-7.66,9.07-7.15,15.58l26.17,1s4.34-11,4.09-13.4C68.19,143.07,59.25,139.49,45.08,139.87Z"/><path class="cls-1" d="M33.72,163.75s-2.17,11-.89,16.59H60.66l.64-15.7Z"/><path class="cls-1" d="M33.72,189.15s4.47,13.53,6.77,16.21c0,0,22.08-.51,23.1-2.29,0,0-2.42-14-2.29-15.32Z"/><path class="cls-2" d="M26.83,191.32s-8.81,9.83-5,22.09,11.49,19.14,21.45,23.87c0,0-25.54,1.4-28.47,15.7l46.47-.64.89-8.17s-17.53-4.85-29.76-34.85C32.43,209.32,29.51,201.28,26.83,191.32Z"/><path class="cls-2" d="M45.85,214.68s7.91,17.11,21.06,19,13.15-5.61,13.15-5.61-8.93-11-11.1-17c0,0-14.94,3.57-23.11,2.81Z"/><path class="cls-1" d="M92.83,40.43a10.29,10.29,0,0,1,6.89-1.66c4,.51,26.94,17,29.87,44S108,147.28,109.81,161.45s30.38,46.72,58.46,47.49,45.71-21.19,56.56-58.85c0,0,6-13.79,16.08-19.54,0,0-7.15,14.3-8.42,36.13s-8.3,56-32.3,70.6S169.55,253.49,155,253.87s-85.66,1-85.66,1,2.93-12.26,17.23-14.3,16.22-1.15,16.22-1.15S86.06,227.07,88.61,209.7s20.18-21.95,20.18-21.95-22.6-5.37-26.3,9.83L80.06,212S65,196.17,69.34,167.58,103.42,116.51,99.72,93a31.46,31.46,0,0,0-7.64-16.14s-1-13.09,11-26.5C103,50.38,106,43.49,92.83,40.43Z"/><path class="cls-1" d="M129.72,178.68c-.45.69,5.75,10.34,18.89,15.07,0,0,1.41-14.94-5.74-20.68C142.87,173.07,131.89,175.36,129.72,178.68Z"/><path class="cls-1" d="M158.44,195.28s-1.13,2,3.2,3.7,17.61.77,17.61.77-1.78-7.79-4.59-10.6C174.66,189.15,160.87,189.92,158.44,195.28Z"/><path class="cls-1" d="M183.59,182.64c-.34.38.26,12,2.43,12.77s10.85-5,10.85-5,1.53-4.47-1.66-7S186.66,179.32,183.59,182.64Z"/><path class="cls-1" d="M126.66,134.64l-2.56,9.19s21.32.13,34.47-19.15,12.9-44.55,12.9-44.55,5.61,7.79,4.72,38.55l10.72,20.43s8.43-19.92-1-45.58-12.76-23.36-12.76-23.36V66.73h2.42s11.75,2.17,27.83,43c0,0,6,18.32,12.38,15.39s-5.87-31.92-5.87-31.92-9.83-28.21-52.59-50.42c0,0,9.42,42.89-2.57,62.55A93.81,93.81,0,0,1,126.66,134.64Z"/><path class="cls-1" d="M232.61,129.41c.43.33,14.81-10.22,14.81-10.22v22.22s9.71.76,11.37-17.24,1.53-30.25,1.53-30.25l-27.71,20.29S226.61,124.68,232.61,129.41Z"/><path class="cls-1" d="M111.72,135.28s-4.07,10.48-1.67,21c2.35-14.14,16.6-39.64,19.33-61.85C123.08,109.76,111.72,135.28,111.72,135.28Z"/><path class="cls-2" d="M99.3,90.76a153,153,0,0,0,1.44-21.1c0-9.57,4-18.6,8-25.13-4.16-3.6-7.66-5.59-9-5.76a10.29,10.29,0,0,0-6.89,1.66c13.15,3.06,10.21,10,10.21,10-12,13.41-11,26.5-11,26.5A31.6,31.6,0,0,1,99.3,90.76Z"/><path class="cls-2" d="M200.19,237.28c21.33-12.94,29.25-41.4,31.64-62.9-5.14,14.17-24.07,55.44-71.85,61.24-45.77,5.56-65.31-15.83-71.47-25-1.84,16.88,14.28,28.83,14.28,28.83s-1.57-.73-12.47.64c5.62,4,15.89,9.37,26,14.33,16.55-.18,32.56-.39,38.66-.55C169.55,253.49,176.19,251.83,200.19,237.28Z"/><path class="cls-2" d="M25.44,106.08a48.58,48.58,0,0,0,8-4.63c11.49-8,17.23-.38,34.34-7.66s16.85-25.79,17-30c0-1.47,1.07-3.48,2.38-5.48-1.62.9-3.21,3.16-4.68,7.27C73.18,91.62,53,92.51,43.41,94,36.68,95.12,29.55,101.77,25.44,106.08Z"/><path class="cls-2" d="M158.32,120.47c-7.77,13.11-26.86,18.81-33.4,20.43l-.82,2.93s21.32.13,34.47-19.15A68.31,68.31,0,0,0,167,107.14,154,154,0,0,0,158.32,120.47Z"/></g></g></svg>