<svg xmlns="http://www.w3.org/2000/svg" xmlns:xlink="http://www.w3.org/1999/xlink" viewBox="0 0 80.19 92.6"><defs><style>.cls-1{fill:url(#Безымянный_градиент_20);}.cls-2{fill:url(#Безымянный_градиент_20-2);}</style><linearGradient id="Безымянный_градиент_20" x1="40.1" y1="92.6" x2="40.1" gradientUnits="userSpaceOnUse"><stop offset="0" stop-color="#ff5722"/><stop offset="1" stop-color="#ff9800"/></linearGradient><linearGradient id="Безымянный_градиент_20-2" x1="36.68" y1="74.34" x2="36.68" y2="20.05" xlink:href="#Безымянный_градиент_20"/></defs><g id="Слой_2" data-name="Слой 2"><g id="OBJECTS"><path class="cls-1" d="M40.1,0,0,23.15v46.3L40.1,92.6,80.19,69.45V23.15ZM76.2,67.14,40.1,88,4,67.14V25.46L40.1,4.61,76.2,25.46Z"/><path class="cls-2" d="M32.18,74.34V67.42s-10.52,2.47-13.39-8.16c-.79-2.42-4-4.33-4-4.33a9.27,9.27,0,0,1,5.74,1.18c3,1.69,1.23,7.59,11.7,5.62,0,0,.39-4.6,1.8-5.34,0,0-14.12.06-13.9-15.75.28-8.31,1.13-8.22,3.27-11.37a15.19,15.19,0,0,1,0-9.22s3.43.17,7.31,5.23a23.4,23.4,0,0,1,17.55.17s3.21-4.84,6.81-5.4a11.62,11.62,0,0,1,.34,9.28s3.77,3.26,3.2,13S49.39,56.79,44.39,56.39c0,0,2.13,1.41,2.13,5.4s-.05,12.55-.05,12.55Z"/></g></g></svg>