<svg xmlns="http://www.w3.org/2000/svg" viewBox="0 0 332.21 350.36"><defs><style>.cls-1{fill:#fff;}</style></defs><g id="Слой_2" data-name="Слой 2"><g id="Слой_4" data-name="Слой 4"><path class="cls-1" d="M166.84,48.24c20.17,0,40.34,0,60.51,0,14.07,0,24.51,7,28.66,18.94a22.28,22.28,0,0,1,1.3,6c1,17.78.83,35.36-9.12,51.19-11.16,17.74-27.13,28-47.85,31.13-2.14.32-2.76-.11-2.69-2.33.16-5.13.09-10.26,0-15.39-.12-10.71-7.4-18-18-18.07q-13.68-.08-27.35,0c-10.42.05-17.82,7.27-18.1,17.74-.13,5.13-.17,10.27,0,15.39.1,2.47-.8,2.77-2.93,2.48-25.87-3.53-48.89-25.08-54-50.85a98.35,98.35,0,0,1-.7-34c1.79-12,12.52-21.39,24.65-21.87,14.33-.56,28.71-.29,43.06-.35C151.79,48.22,159.32,48.24,166.84,48.24Z"/><path class="cls-1" d="M299,209.47c3,0,5.92,0,8.88,0,7.54,0,11.7,3.56,12.68,11,1.5,11.4,2.84,22.82,4.26,34.23,2.41,19.43,4.75,38.87,7.26,58.29,1,7.94-3.61,13.55-11.68,13.63-5.47.06-10.95-.14-16.41.08-2.47.1-3.33-.65-3.61-3.07-1.57-13.45-3.28-26.89-5-40.33q-4.28-34-8.61-68.1c-.74-5.75-.87-5.73,5-5.73Z"/><path class="cls-1" d="M33.25,209.47c3.31,0,6.62.12,9.91-.05,2.08-.1,2.77.35,2.48,2.6-2.27,17.15-4.44,34.31-6.61,51.47-2.56,20.21-5.12,40.42-7.54,60.64-.26,2.14-1,2.59-2.93,2.55-5.69-.12-11.39,0-17.08-.06C3.86,326.5-.83,320.79.12,313.29q4.77-37.59,9.38-75.2c.73-5.87,1.38-11.76,2.19-17.62,1-7.44,5.14-11,12.68-11C27.33,209.45,30.29,209.47,33.25,209.47Z"/><path class="cls-1" d="M188.27,159.47c0,7.07,0,14.14,0,21.21-.05,6.34-3.1,9.35-9.52,9.39-8.55.05-17.1.07-25.65,0-6.28,0-9.42-3.25-9.44-9.55q0-21,0-42.07,0-9.22,9.25-9.3,13.17-.09,26.34,0c6.09.05,9,3,9,9.1C188.32,145.33,188.27,152.4,188.27,159.47Z"/><path class="cls-1" d="M234.5,19.55c0,5.47-.08,11,0,16.41,0,2.08-.29,3-2.72,3-9.69-.14-19.38-.11-29.07,0-2,0-2.46-.63-2.45-2.53q.12-16.92,0-33.85c0-1.82.29-2.56,2.35-2.54q14.72.17,29.41,0c1.91,0,2.52.48,2.47,2.44C234.41,8.15,234.5,13.85,234.5,19.55Z"/><path class="cls-1" d="M102.45,19.56c0-5.7.08-11.39,0-17.09,0-1.9.46-2.49,2.43-2.47q14.69.17,29.38,0c2,0,2.42.68,2.41,2.54q-.12,16.92,0,33.83c0,1.9-.49,2.56-2.48,2.54q-14.68-.13-29.38,0c-2.13,0-2.37-.87-2.34-2.62C102.5,30.72,102.45,25.14,102.45,19.56Z"/><path class="cls-1" d="M291.87,329.74c-.59-5.89-1.47-11.74-2.21-17.61q-4.29-33.69-8.59-67.39-4.31-33.86-8.6-67.72-4-31.34-7.92-62.66c-.28-.44-.44-1.1-1.21-.68q-16.39,44.38-63.2,51.3c-1.82.27-2.54.76-2.48,2.7.13,4.56.08,9.12,0,13.68-.12,10.71-7.33,18-18.07,18.07-9,.09-18,.07-27,0-10.9-.08-18.19-7.29-18.4-18.17-.09-4.45-.12-8.9,0-13.34.07-2.12-.5-2.8-2.74-3.12a74.62,74.62,0,0,1-43-21.15c-9.73-9.59-16.24-21.09-20.08-35.25-.36,2.21-.6,3.42-.76,4.64-.84,6.44-1.65,12.88-2.47,19.32q-4.24,33.54-8.5,67.1L48.08,266.9q-3.9,30.68-7.78,61.34a19.78,19.78,0,0,0,.43,8.13c2.18,7.49,7.58,11.55,14.56,14h221c.3-.65.94-.5,1.46-.63A19.07,19.07,0,0,0,291.87,329.74Zm-29.32-23c0,12.68-8,20.74-20.71,20.75q-75.76,0-151.53,0c-13,0-20.77-7.88-20.78-20.92q0-26.52,0-53c0-12.9,8-20.75,21-20.76H241.34c13.31,0,21.2,7.92,21.21,21.28Q262.57,280.38,262.55,306.72Z"/><path class="cls-1" d="M166.11,242.25h75.23c8,0,11.7,3.63,11.7,11.64q0,26.32,0,52.66c0,7.74-3.76,11.5-11.56,11.51H90.66c-8,0-11.71-3.7-11.72-11.71q0-26.34,0-52.67c0-7.8,3.74-11.43,11.59-11.43Z"/></g></g></svg>