<svg xmlns="http://www.w3.org/2000/svg" viewBox="0 0 127.49 171.23"><defs><style>.cls-1{fill:#b3b3b3;}.cls-2{fill:#fff;}</style></defs><g id="Слой_2" data-name="Слой 2"><g id="Слой_5" data-name="Слой 5"><path class="cls-1" d="M10,.85h9a0,0,0,0,1,0,0V67.06a0,0,0,0,1,0,0H10A10,10,0,0,1,0,57V10.89a10,10,0,0,1,10-10Z"/><path class="cls-1" d="M118.47.85h9a0,0,0,0,1,0,0V67.06a0,0,0,0,1,0,0h-9a10,10,0,0,1-10-10V10.89a10,10,0,0,1,10-10Z" transform="translate(235.91 67.91) rotate(180)"/><rect class="cls-1" x="44.6" y="2.38" width="38.98" height="64"/><path class="cls-2" d="M0,10.89V57c0,.06,0,.11,0,.17h19V.85H10A10,10,0,0,0,0,10.89Z"/><rect class="cls-2" x="44.6" y="2.38" width="38.98" height="54.81"/><path class="cls-2" d="M117.45.85h-9V57.19h19c0-.06,0-.11,0-.17V10.89A10,10,0,0,0,117.45.85Z"/><rect class="cls-2" x="25.36" width="11.74" height="39.49"/><path class="cls-2" d="M25.36,46H37.11a0,0,0,0,1,0,0V78.3a5.28,5.28,0,0,1-5.28,5.28H30.64a5.28,5.28,0,0,1-5.28-5.28V46A0,0,0,0,1,25.36,46Z"/><rect class="cls-2" x="90.98" width="11.74" height="39.49"/><path class="cls-2" d="M91,46h11.74a0,0,0,0,1,0,0V78.3a5.28,5.28,0,0,1-5.28,5.28H96.26A5.28,5.28,0,0,1,91,78.3V46A0,0,0,0,1,91,46Z"/><path class="cls-2" d="M108.43,74s-6.88,14.65-11.58,14.81C91.88,89,83.57,74,83.57,74h-39S36.19,88.68,31.23,88.68,17.87,74,17.87,74h-16v67.49a29.7,29.7,0,0,0,29.7,29.7H96.26a29.7,29.7,0,0,0,29.7-29.7V74Zm1.87,69.19A12.34,12.34,0,0,1,98,155.57H27.83a12.33,12.33,0,0,1-12.34-12.34V105.79A12.33,12.33,0,0,1,27.83,93.45H98a12.34,12.34,0,0,1,12.34,12.34Z"/><path class="cls-2" d="M92.34,147.91H32.77a9.27,9.27,0,0,1-9.28-9.27v-16H33.87L34,130h9.7l.17-7.4H79l.17,6.89,11.83.85v-7.74h10.64v16A9.28,9.28,0,0,1,92.34,147.91Z"/><rect class="cls-2" x="23.49" y="100.26" width="25.02" height="16" rx="4.43"/><rect class="cls-2" x="76.6" y="100.26" width="25.02" height="16" rx="4.43"/><rect class="cls-2" x="50.04" y="100.26" width="25.02" height="16" rx="4.43"/><path class="cls-1" d="M23.56,139.74a9.27,9.27,0,0,0,9.21,8.17H92.34a9.25,9.25,0,0,0,9.2-8.17Z"/><path class="cls-1" d="M106.64,152A12.3,12.3,0,0,1,98,155.57H27.83A12.28,12.28,0,0,1,19.15,152H3.78a29.69,29.69,0,0,0,27.79,19.23H96.26A29.69,29.69,0,0,0,124.05,152Z"/></g></g></svg>