<svg xmlns="http://www.w3.org/2000/svg" viewBox="0 0 90.59 64.54"><defs><style>.cls-1{fill:#fff;}</style></defs><g id="Слой_2" data-name="Слой 2"><g id="Layer_1" data-name="Layer 1"><path class="cls-1" d="M75.22,16c.26-.05.3-.28.62-.28s.36-.24.73-.24l.72,0c.37,0,.37.3.73.3s.36.09.73.09.36-.15.72-.15.37-.34.73-.34.36,0,.73,0,.43-.27.77.06.16,1.15-.08,1.64-.33-.19-.69-.19-.36.17-.73.17-.36.05-.72.05-.37.26-.73.26-.36-.29-.72-.29S77.66,17,77.3,17s-.36.2-.73.2-.35.1-.61.12l0,.05.7,1.93.11.33c.16-.06.24-.18.5-.18s.37.07.73.07.36.48.73.48.36-.14.72-.14.37.17.73.17.36,0,.73,0,.42-.76.75-.4a1.79,1.79,0,0,1,0,1.7c-.27.57-.39,0-.75,0s-.36.18-.73.18-.36-.21-.72-.21-.37.16-.73.16-.36.09-.72.09-.37-.2-.62-.25L78.34,24a.56.56,0,0,1,.41-.22c.36,0,.36.3.72.3s.37-.27.73-.27.36.15.73.15.4-.42.74-.11.17.92-.07,1.42-.31.36-.67.36-.36,0-.73,0-.36-.41-.72-.41-.36.19-.61.24l.88,2.47c.13.13.21.31.45.31s.36-.42.73-.42.39-.19.73.14.21,1,0,1.44-.34.09-.7.09-.35.19-.52.28l.72,2c.19,0,.28-.08.54.18s.22.91,0,1.4l4.1,11.5V2.81A2.81,2.81,0,0,0,83,0H27.79A2.81,2.81,0,0,0,25,2.81V14H71.39A5.18,5.18,0,0,1,75.22,16ZM48.59,2h5V3.17H50v1.5h3.41V5.81H50V7.66h3.79V8.8H48.59ZM41.77,2H43.1l2.77,4.53V2h1.27V8.8H45.77L43,4.38V8.8H41.77ZM61.89,13.41c-.63.57-1.08-.19-1.93-.19s-.85-.05-1.7-.05-.85-.07-1.7-.07H54.87c-.85,0-.85.15-1.7.15h-1.7c-.85,0-.85.19-1.7.19s-.85-.61-1.69-.61-.85.3-1.7.3-.85.24-1.7.24-.85,0-1.7,0-.85-.31-1.7-.31S40.43,13,39.59,13s-.85.15-1.7.15-.85.34-1.7.34-.85-.05-1.7-.05-.85,0-1.7,0-.85-.58-1.7-.58-.85.54-1.7.54-.85-.07-1.7-.07-1.22.6-1.85,0a1.23,1.23,0,0,1,0-1.86c.63-.57,1,.19,1.86.19s.85-.07,1.7-.07.85.22,1.7.22.85-.22,1.7-.22.85-.19,1.7-.19.85.36,1.69.36.85-.43,1.7-.43.85.06,1.7.06.85.52,1.7.52.85-.2,1.69-.2.85-.33,1.7-.33h1.7c.85,0,.85.23,1.7.23s.85-.11,1.7-.11.85.4,1.7.4.85-.54,1.7-.54.85.06,1.7.06.84.28,1.69.28.85-.07,1.7-.07.86,0,1.71,0a2.16,2.16,0,0,1,1.55.31C62.36,12.38,62.45,12.91,61.89,13.41Zm-.4-4.61H60L58.69,3.73,57.35,8.8H55.86L54.24,2h1.4l1,4.66L57.9,2h1.63l1.19,4.73,1-4.73h1.38Zm2-2.21,1.33-.13a1.61,1.61,0,0,0,.49,1,1.45,1.45,0,0,0,1,.31,1.48,1.48,0,0,0,1-.28.8.8,0,0,0,.34-.65.64.64,0,0,0-.14-.41,1.15,1.15,0,0,0-.5-.29c-.16-.06-.52-.16-1.09-.3a3.6,3.6,0,0,1-1.54-.67,1.75,1.75,0,0,1-.63-1.36,1.71,1.71,0,0,1,.3-1,1.81,1.81,0,0,1,.84-.69,3.33,3.33,0,0,1,1.33-.23,2.83,2.83,0,0,1,1.93.56A2,2,0,0,1,68.8,4L67.43,4a1.12,1.12,0,0,0-.37-.75A1.39,1.39,0,0,0,66.19,3a1.56,1.56,0,0,0-.93.24A.5.5,0,0,0,65,3.7a.56.56,0,0,0,.2.42,3.84,3.84,0,0,0,1.26.45A6.63,6.63,0,0,1,68,5.06a1.79,1.79,0,0,1,.75.69A2,2,0,0,1,69,6.82a1.94,1.94,0,0,1-.33,1.09,1.9,1.9,0,0,1-.91.76,3.78,3.78,0,0,1-1.48.25,2.92,2.92,0,0,1-2-.6A2.56,2.56,0,0,1,63.49,6.59ZM70,13.44c-.37,0-.37,0-.73,0s-.36-.58-.73-.58-.36.54-.72.54-.37-.07-.73-.07-.52.6-.79,0a2.49,2.49,0,0,1,0-1.86c.27-.57.43.19.8.19s.36-.07.72-.07.37.22.73.22.36-.22.73-.22.36-.19.72-.19.37.36.73.36.36-.43.72-.43.37.06.73.06.36.52.73.52.36-.2.72-.2.36-.33.73-.33h.72c.37,0,.37.23.73.23s.36-.11.73-.11.36.4.72.4.37-.54.73-.54.36.06.73.06.36.28.72.28.37-.07.73-.07.36,0,.73,0,.34-.08.66.31a1.31,1.31,0,0,1,.17,1.46c-.28.57-.47-.19-.83-.19s-.36-.05-.73-.05-.36-.07-.72-.07h-.73c-.36,0-.36.15-.72.15H77.3c-.36,0-.36.19-.73.19s-.36-.61-.72-.61-.37.3-.73.3-.36.24-.72.24-.37,0-.73,0-.36-.31-.73-.31-.36-.08-.72-.08-.37.15-.73.15-.36.34-.73.34S70.4,13.44,70,13.44Z"/><path class="cls-1" d="M89.56,3.42H86.84v9.67A3.63,3.63,0,0,1,88.5,16.2V55.86l-2.71-7.59-4-11.11L81.42,36l-.93-2.58L80,32l-.82-2.29-.72-2-.76-2.14-.49-1.38-1.1-3.06-.31-.87-.22-.63-.47-1.3a4.22,4.22,0,0,0-.43-.88,5.54,5.54,0,0,0-1.78-1.76,4.54,4.54,0,0,0-2.38-.75H18.36a3.19,3.19,0,0,1,3-2.23h2.56V9.74H19.1a3.58,3.58,0,0,0-3.39,3.74v1.41H2.39c-1.87,0-2.85,1.52-2.18,3.39L15.5,61.16a5.84,5.84,0,0,0,.36.76,3.46,3.46,0,0,0,3.24,2.62H88.2a2.24,2.24,0,0,0,2.31-2.93,3.59,3.59,0,0,0,.08-.81V4.57A1.1,1.1,0,0,0,89.56,3.42Z"/></g></g></svg>