<svg xmlns="http://www.w3.org/2000/svg" viewBox="0 0 37.86 63.31"><defs><style>.cls-1{fill:#fff;}.cls-2{font-size:8px;fill:#ff5722;font-family:BerlinSansFBDemi-Bold, Berlin Sans FB Demi;font-weight:700;}</style></defs><g id="Слой_2" data-name="Слой 2"><g id="Layer_1" data-name="Layer 1"><path class="cls-1" d="M27.25,10.51H6v5H31Z"/><path class="cls-1" d="M11.76,19.49c.43,0,.43.06.85.06s.43.05.85.05h.85c.43,0,.43-.15.86-.15s.42.17.85.17.42-.07.85-.07h1.7c.43,0,.43,0,.85,0s.43.16.85.16.43,0,.85,0,.43-.07.85-.07h.85c.43,0,.43-.2.85-.2s.43.19.86.19.42-.1.85-.1.42-.08.85-.08.42,0,.85,0,.42,0,.85,0,.6.45.92.17.34-.66-.06-.85-.44,0-.86,0-.43-.07-.86-.07-.42-.09-.85-.09h-.85c-.42,0-.42.13-.85.13s-.43.1-.85.1-.43-.07-.85-.07-.43-.15-.85-.15h-.85c-.43,0-.43.08-.86.08s-.42.21-.85.21-.42-.28-.85-.28h-.85c-.42,0-.42.16-.85.16s-.42-.18-.85-.18-.43.11-.85.11-.43.07-.85.07-.43,0-.85,0-.43-.14-.85-.14-.43.28-.85.28-.43-.28-.75,0-.39.38-.1.63S11.33,19.49,11.76,19.49Z"/><path class="cls-1" d="M11,21.47c.32.28.31.21.74.21s.43-.13.85-.13.43-.13.85-.13.43.07.85.07.43.26.86.26.42-.16.85-.16.42,0,.85,0,.42-.07.85-.07.43.16.85.16.43.06.85.06.43-.18.85-.18.43.2.85.2.43-.16.85-.16.43-.11.85-.11.43.28.85.28.43,0,.86,0,.42-.22.85-.22.42.07.85.07.42.22.85.22.42-.08.85-.08.5.16.82-.13.4-.61.05-.76-.45.14-.87.14-.43-.17-.86-.17-.42.07-.85.07-.42,0-.85,0h-.85c-.43,0-.43,0-.85,0s-.43-.17-.85-.17-.43,0-.85,0-.43.07-.85.07h-.86c-.42,0-.42.2-.85.2s-.42-.2-.85-.2-.42.11-.85.11-.42.07-.85.07-.42,0-.85,0-.43,0-.85,0-.43-.19-.85-.19-.43.09-.85.09-.43-.06-.85-.06-.43.18-.85.18-.63-.49-.95-.21S10.74,21.22,11,21.47Z"/><path class="cls-1" d="M10.81,23.75c.32.29.52,0,.95,0s.43-.09.85-.09.43-.14.85-.14.43.22.85.22.43-.28.86-.28.42.23.85.23.42,0,.85,0,.42-.11.85-.11.43.14.85.14.43.11.85.11.43,0,.85,0,.43,0,.85,0,.43-.29.85-.29.43.26.85.26.43,0,.85,0,.43-.21.86-.21.42,0,.85,0,.42.2.85.2.42-.16.85-.16.42.17.85.17.61.26.93,0,.28-.54-.13-.74-.38-.26-.8-.26-.43.17-.86.17-.42,0-.85,0-.42.07-.85.07-.42-.16-.85-.16-.43-.06-.85-.06-.43.18-.85.18-.43-.2-.85-.2-.43.15-.85.15-.43.12-.86.12-.42-.28-.85-.28-.42,0-.85,0-.42.22-.85.22-.42-.07-.85-.07-.42-.22-.85-.22-.43.08-.85.08-.43.14-.85.14-.43.06-.85.06-.43-.1-.85-.1-.43.07-.85.07-.64-.48-1-.2A.68.68,0,0,0,10.81,23.75Z"/><path class="cls-1" d="M27.93,25.1c-.43,0-.43-.23-.86-.23s-.42,0-.85,0-.42.11-.85.11-.42-.14-.85-.14-.43-.11-.85-.11-.43.05-.85.05-.43,0-.85,0-.43.29-.85.29-.43-.27-.86-.27-.42.05-.85.05-.42.21-.85.21-.42,0-.85,0-.42-.19-.85-.19S16.44,25,16,25s-.43-.17-.85-.17h-.85c-.43,0-.43,0-.85,0S13,25,12.61,25s-.43,0-.85,0-.53-.31-.85,0-.17.36.11.61.31.19.74.19.43-.06.85-.06.43-.1.85-.1.43.25.85.25.43,0,.86,0,.42-.29.85-.29.42.14.85.14h.85c.43,0,.43,0,.85,0h.85c.43,0,.43-.08.85-.08s.43,0,.85,0,.43.22.85.22.43-.19.85-.19.43-.07.85-.07.43-.05.86-.05h1.7c.42,0,.42.1.85.1s.42.11.85.11.44.12.76-.16.46-.63.13-.76S28.35,25.1,27.93,25.1Z"/><path class="cls-1" d="M28.85,26.84c-.39-.19-.5,0-.92,0s-.43.29-.86.29-.42-.14-.85-.14h-.85c-.42,0-.42,0-.85,0h-.85c-.43,0-.43.08-.85.08s-.43,0-.85,0-.43-.22-.85-.22-.43.19-.86.19-.42.07-.85.07-.42.05-.85.05h-1.7c-.42,0-.42-.1-.85-.1s-.43-.11-.85-.11-.43.19-.85.19-.43,0-.85,0h-.85c-.43,0-.43-.25-.85-.25s-.58-.17-.9.11a.54.54,0,0,0,0,.85c.32.29.47.08.9.08s.43-.07.85-.07.43-.05.85-.05.43.09.85.09.43.07.86.07.42-.11.85-.11.42-.15.85-.15.42,0,.85,0,.43.09.85.09.43,0,.85,0,.43.09.85.09.43-.1.85-.1.43.11.85.11.43,0,.85,0,.43-.25.85-.25.43-.05.86-.05.42.2.85.2.42-.19.85-.19.42.31.85.31.42-.31.85-.31.61.53.93.25S29.26,27,28.85,26.84Z"/><text/><path class="cls-1" d="M10.85,31.89c.32.28.48-.1.91-.1s.43,0,.85,0,.43-.08.85-.08.43.31.85.31h.86c.42,0,.42-.07.85-.07h1.7c.43,0,.43-.25.85-.25s.43.15.85.15.43.13.85.13.43-.19.85-.19.43,0,.85,0,.43-.07.85-.07.43-.06.85-.06.43.1.86.1.42.19.85.19h.85c.42,0,.42-.12.85-.12s.42.18.85.18.47,0,.79-.24.44-.63.09-.77-.46.13-.88.13h-.86c-.42,0-.42-.1-.85-.1s-.42.1-.85.1S25,31,24.52,31s-.43.11-.85.11-.43-.21-.85-.21S22.39,31,22,31s-.43-.06-.85-.06-.43,0-.86,0-.42,0-.85,0-.42.17-.85.17-.42-.07-.85-.07-.42.13-.85.13-.42-.28-.85-.28-.43,0-.85,0-.43.1-.85.1-.43.17-.85.17-.43-.15-.85-.15-.43,0-.85,0-.57-.35-.89-.07A.55.55,0,0,0,10.85,31.89Z"/><path class="cls-1" d="M28.84,33c-.38-.18-.49,0-.91,0s-.43.07-.86.07h-1.7c-.42,0-.42.25-.85.25s-.43-.16-.85-.16-.43-.12-.85-.12-.43.18-.85.18h-.85c-.43,0-.43.06-.86.06s-.42.06-.85.06-.42-.09-.85-.09-.42-.2-.85-.2h-.85c-.42,0-.42.11-.85.11s-.43-.17-.85-.17-.43.26-.85.26-.43-.23-.85-.23-.43.19-.85.19-.43-.06-.85-.06-.63-.39-.95-.1a.59.59,0,0,0,.06.91c.31.28.46-.16.89-.16s.43.19.85.19.43,0,.85,0,.43-.09.85-.09.43-.06.86-.06.42.28.85.28.42-.13.85-.13.42-.16.85-.16h.85c.43,0,.43.09.85.09s.43-.08.85-.08.43.06.85.06.43,0,.85,0,.43-.13.85-.13h.85c.43,0,.43.09.86.09s.42-.08.85-.08.42.14.85.14.42-.09.85-.09.42.15.85.15.56.27.88,0S29.23,33.16,28.84,33Z"/><path class="cls-1" d="M11,35.86c.32.28.37.17.8.17s.43-.2.85-.2.43.06.85.06.43-.14.85-.14.43.17.86.17H16c.42,0,.42,0,.85,0s.42.14.85.14.43,0,.85,0,.43-.27.85-.27.43.2.85.2.43-.06.85-.06.43.12.85.12h.85c.43,0,.43-.16.85-.16s.43-.1.86-.1.42.26.85.26.42,0,.85,0,.42-.22.85-.22.42.19.85.19.55.17.87-.11.34-.55,0-.73-.41.07-.83.07S27.5,35,27.07,35s-.42.13-.85.13-.42.16-.85.16h-.85c-.43,0-.43-.09-.85-.09s-.43.07-.85.07-.43-.05-.85-.05-.43,0-.85,0-.43.13-.86.13h-.85c-.42,0-.42-.08-.85-.08s-.42.08-.85.08-.42-.14-.85-.14-.42.08-.85.08-.43-.14-.85-.14h-1.7c-.43,0-.43,0-.85,0s-.43-.16-.85-.16a.78.78,0,0,0-.76.28C10.72,35.52,10.67,35.61,11,35.86Z"/><path class="cls-1" d="M28.7,37.36a1.09,1.09,0,0,0-.77-.15h-.86c-.42,0-.42,0-.85,0s-.42-.14-.85-.14-.42,0-.85,0-.43.27-.85.27-.43-.2-.85-.2-.43.06-.85.06-.43-.12-.85-.12h-.86c-.42,0-.42.17-.85.17s-.42.1-.85.1-.42-.26-.85-.26-.42,0-.85,0-.42.21-.85.21-.43-.18-.85-.18-.43.1-.85.1-.43.11-.85.11-.43-.12-.85-.12-.43,0-.85,0-.62-.38-.94-.09a.62.62,0,0,0,0,.93c.32.28.5,0,.93,0s.43,0,.85,0,.43-.26.85-.26.43.29.85.29l.86,0c.42,0,.42,0,.85,0s.42-.17.85-.17.42-.07.85-.07.43,0,.85,0,.43.15.85.15h.85c.43,0,.43-.12.85-.12s.43-.14.85-.14.43.3.85.3.43-.09.85-.09h.86c.42,0,.42-.07.85-.07h.85c.42,0,.42,0,.85,0s.42,0,.85,0,.65.38,1,.1S29.13,37.58,28.7,37.36Z"/><path class="cls-1" d="M11.76,40.08c.43,0,.43-.09.85-.09h.85c.43,0,.43.1.85.1s.43-.21.86-.21H16c.42,0,.42.09.85.09s.42-.07.85-.07.43.24.85.24.43,0,.85,0,.43-.1.85-.1.43.07.85.07.43-.09.85-.09.43-.06.85-.06.43-.1.85-.1.43.06.86.06.42.15.85.15.42-.13.85-.13.42,0,.85,0,.42-.09.85-.09.49.38.81.1.44-.68.09-.83-.48,0-.9,0l-.86,0c-.42,0-.42.16-.85.16s-.42.08-.85.08-.42,0-.85,0-.43-.15-.85-.15h-.85c-.43,0-.43.12-.85.12s-.43.14-.85.14-.43-.3-.86-.3-.42.09-.85.09h-.85c-.42,0-.42.07-.85.07h-.85c-.42,0-.42,0-.85,0s-.43,0-.85,0-.43-.14-.85-.14-.43.08-.85.08-.43.2-.85.2-.43-.23-.85-.23-.63-.27-.95,0a.57.57,0,0,0,.08.88C11.21,40.31,11.33,40.08,11.76,40.08Z"/><path class="cls-1" d="M28.81,41.23c-.39-.18-.46.2-.88.2h-.86c-.42,0-.42-.09-.85-.09s-.42.07-.85.07-.42-.24-.85-.24-.43,0-.85,0-.43.11-.85.11-.43-.08-.85-.08-.43.09-.85.09-.43.06-.86.06-.42.1-.85.1-.42-.06-.85-.06-.42-.14-.85-.14-.42.12-.85.12-.42,0-.85,0-.43.08-.85.08-.43-.08-.85-.08-.43-.2-.85-.2-.43.13-.85.13-.43,0-.85,0-.54-.23-.86,0-.24.48,0,.73.39,0,.82,0h.85c.43,0,.43.07.85.07h.85c.43,0,.43-.06.86-.06s.42.08.85.08.42-.14.85-.14.42.15.85.15.43-.17.85-.17.43,0,.85,0,.43,0,.85,0,.43.12.85.12.43-.19.85-.19.43.21.85.21.43,0,.85,0,.43.13.86.13.42,0,.85,0,.42-.08.85-.08.42.1.85.1.42-.08.85-.08.56.27.88,0S29.2,41.41,28.81,41.23Z"/><path class="cls-1" d="M11.76,44.2c.43,0,.43-.08.85-.08S13,44,13.46,44s.43.06.85.06.43.08.86.08S15.59,44,16,44s.42.22.85.22.42.09.85.09.43,0,.85,0S19,44,19.42,44s.43,0,.85,0,.43.16.85.16.43.05.85.05.43,0,.85,0,.43.06.85.06.43-.2.86-.2.42.07.85.07.42-.12.85-.12.42.2.85.2h.85c.42,0,.46.1.78-.18s.42-.58.08-.71-.44,0-.86,0-.43-.08-.86-.08-.42.14-.85.14-.42-.15-.85-.15-.42.18-.85.18h-.85c-.43,0-.43,0-.85,0s-.43-.12-.85-.12-.43.19-.85.19-.43-.21-.86-.21-.42,0-.85,0-.42-.13-.85-.13-.42,0-.85,0-.42.08-.85.08-.42-.1-.85-.1-.43.09-.85.09h-.85c-.43,0-.43.14-.85.14s-.43,0-.85,0-.43,0-.85,0-.45-.29-.77,0-.3.34,0,.59S11.33,44.2,11.76,44.2Z"/><path class="cls-1" d="M10.79,46.27c.32.28.54-.09,1-.09s.43-.18.85-.18.43.12.85.12.43.08.85.08.43.07.86.07.42,0,.85,0,.42-.25.85-.25.42.17.85.17.43-.18.85-.18.43.1.85.1.43.12.85.12.43,0,.85,0,.43,0,.85,0,.43.1.85.1.43-.31.85-.31.43.09.86.09.42.23.85.23.42-.09.85-.09.42.11.85.11.42-.16.85-.16.5.23.82,0,.39-.57,0-.72-.43-.07-.85-.07-.43.21-.86.21-.42-.22-.85-.22-.42-.09-.85-.09-.42,0-.85,0-.43.23-.85.23-.43,0-.85,0-.43-.16-.85-.16-.43,0-.85,0-.43,0-.86,0-.42-.05-.85-.05-.42.2-.85.2-.42-.08-.85-.08-.42.13-.85.13-.42-.21-.85-.21-.43,0-.85,0-.43.2-.85.2-.43.07-.85.07h-.85c-.43,0-.43,0-.85,0s-.42-.27-.74,0S10.51,46,10.79,46.27Z"/><path class="cls-1" d="M27.93,47.32c-.43,0-.43,0-.86,0s-.42.24-.85.24-.42-.16-.85-.16-.42.18-.85.18-.43-.11-.85-.11-.43-.12-.85-.12-.43,0-.85,0-.43,0-.85,0-.43-.11-.86-.11-.42.31-.85.31-.42-.08-.85-.08-.42-.24-.85-.24-.42.1-.85.1-.42-.11-.85-.11-.43.16-.85.16-.43.06-.85.06-.43-.15-.85-.15-.43-.07-.85-.07-.43,0-.85,0-.44,0-.76.26-.42.45-.14.7.47.07.9.07.43-.07.85-.07.43.1.85.1.43-.14.85-.14.43-.09.86-.09.42,0,.85,0,.42,0,.85,0,.42.3.85.3.43,0,.85,0,.43-.21.85-.21h.85c.43,0,.43.17.85.17s.43-.08.85-.08.43-.13.85-.13.43.27.85.27.43-.11.86-.11.42,0,.85,0,.42.09.85.09.42-.27.85-.27.42.06.85.06.5.28.82,0,.41-.61.05-.77S28.35,47.32,27.93,47.32Z"/><path class="cls-1" d="M28.79,49.47c-.39-.18-.44.09-.86.09s-.43,0-.86,0-.42,0-.85,0-.42-.3-.85-.3-.42,0-.85,0-.43.21-.85.21h-.85c-.43,0-.43-.17-.85-.17s-.43.08-.85.08-.43.13-.86.13-.42-.28-.85-.28-.42.11-.85.11-.42,0-.85,0-.42-.09-.85-.09-.42.27-.85.27-.43-.06-.85-.06h-.85c-.43,0-.43-.05-.85-.05s-.43-.09-.85-.09-.43.13-.85.13-.59-.38-.91-.1-.22.56.07.81.41,0,.84,0,.43-.13.85-.13.43,0,.85,0,.43.11.85.11.43-.18.86-.18.42.12.85.12.42-.08.85-.08.42-.08.85-.08.43.1.85.1.43-.05.85-.05h.85c.43,0,.43.06.85.06s.43.23.85.23.43-.12.85-.12.43,0,.85,0,.43.07.86.07.42-.33.85-.33.42,0,.85,0,.42.29.85.29.42-.19.85-.19.54.33.86,0S29.16,49.64,28.79,49.47Z"/><path class="cls-1" d="M32.72.44h-1s.05-.1.05-.22,0-.22-.05-.22H28.16s-.06.1-.06.22,0,.22.06.22H5.58A4.92,4.92,0,0,0,.44,5.11V8.42c0-.09-.1-.15-.22-.15S0,8.33,0,8.42v9.49c0,.08.1.14.22.14s.22-.06.22-.14V58.64a4.92,4.92,0,0,0,5.14,4.67H32.72a4.92,4.92,0,0,0,5.14-4.67V5.11A4.92,4.92,0,0,0,32.72.44Zm-.31,2.34a.61.61,0,1,1-.61.61A.61.61,0,0,1,32.41,2.78ZM31,3.14a.25.25,0,1,1-.26.25A.25.25,0,0,1,31,3.14Zm-14.77.25h7.17c.06,0,.11.1.11.22s-.05.22-.11.22H16.27c-.06,0-.11-.1-.11-.22S16.21,3.39,16.27,3.39Zm3.58,58.88A3.18,3.18,0,1,1,23,59.09,3.18,3.18,0,0,1,19.85,62.27Zm13.32-7.9h-28V6.26h28Z"/><path class="cls-1" d="M19.85,57.69a1.4,1.4,0,1,0,1.4,1.4A1.4,1.4,0,0,0,19.85,57.69Z"/><path class="cls-1" d="M32.41,3.64a.25.25,0,1,0-.25-.25A.25.25,0,0,0,32.41,3.64Z"/><path class="cls-1" d="M31,3.49a.1.1,0,0,0,.1-.1.11.11,0,0,0-.1-.11.11.11,0,0,0-.11.11A.1.1,0,0,0,31,3.49Z"/><text class="cls-2" transform="translate(6.63 14.83)">Quests</text></g></g></svg>