<svg xmlns="http://www.w3.org/2000/svg" viewBox="0 0 246.32 236.76"><defs><style>.cls-1{fill:#fff;}.cls-2{fill:#ccc;}</style></defs><g id="Слой_2" data-name="Слой 2"><g id="Слой_2-2" data-name="Слой 2"><path class="cls-1" d="M126,31.09a83.49,83.49,0,1,0,83.49,83.48A83.48,83.48,0,0,0,126,31.09Zm0,153.65a70.17,70.17,0,1,1,70.17-70.17A70.17,70.17,0,0,1,126,184.74Z"/><circle class="cls-1" cx="125.48" cy="114.57" r="57.86"/><rect class="cls-1" x="186.4" y="186.04" width="43.4" height="33.69" transform="translate(204.41 -87.73) rotate(45)"/><path class="cls-1" d="M222.83,207.49H226a10.24,10.24,0,0,1,10.24,10.24v13.21A10.24,10.24,0,0,1,226,241.18h-3.21a0,0,0,0,1,0,0V207.49a0,0,0,0,1,0,0Z" transform="translate(225.87 -96.62) rotate(45)"/><path class="cls-1" d="M180.48,165.14h3.21a10.24,10.24,0,0,1,10.24,10.24v13.21a10.24,10.24,0,0,1-10.24,10.24h-3.21a0,0,0,0,1,0,0V165.14a0,0,0,0,1,0,0Z" transform="translate(190.9 443.04) rotate(-135)"/><polygon class="cls-1" points="243.32 13.09 222.11 26.04 200.89 13.09 222.11 0 243.32 13.09"/><polygon class="cls-1" points="225.11 55.72 225.11 30.53 246.32 18.09 246.32 42.15 225.11 55.72"/><polygon class="cls-1" points="219.11 55.63 219.11 30.81 197.7 18.18 197.47 43.17 219.11 55.63"/><path class="cls-1" d="M25.11,7.91A25.11,25.11,0,1,0,50.21,33,25.11,25.11,0,0,0,25.11,7.91Zm0,42.13a17,17,0,1,1,17-17A17,17,0,0,1,25.11,50Z"/><path class="cls-2" d="M125.48,172.44a57.86,57.86,0,0,0,57.85-57.33c-1.53-1.08-4.31-2.77-7-2.94-4-.26-12.89,7.28-12.89,7.28s-3.58,12.25-4.73,14.55-25.4-6.51-25.4-6.51A124.49,124.49,0,0,1,135,110.38c1.4-7.15,22.21-7,23-6.89S177.62,97,177.62,97l.38-6.69a57.86,57.86,0,0,0-52.52-33.58A58.49,58.49,0,0,0,113.41,58c1.07.81,2,1.47,2.16,1.59.64.39,13,5.88,14.17,6.13s9.83,7.66,10.47,7.66,20.17,9.32,20.17,9.32S153.74,92,152,92.26s-14.68-1.15-15.45-1.41S123.74,80,123.36,80a85.65,85.65,0,0,1-28.47,1.53C87,80.54,84.21,77.82,83,75.28a56.91,56.91,0,0,0-3.8,4.53c3.16,2.54,8.32,6.68,9,7.21,1,.77,14.55,8,18.12,10.72s-3.57,4.73-5,5.62-26.8-3.45-26.8-3.45l6,9.83s0,6.9-.9,8.43,2,8.94,2.3,11,13.4,14.68,14.43,16.72c.62,1.25-.23,10.86-1,18.16A57.6,57.6,0,0,0,125.48,172.44Z"/></g></g></svg>