<svg xmlns="http://www.w3.org/2000/svg" viewBox="0 0 237.73 237.74"><defs><style>.cls-1{fill:#fff;}</style></defs><g id="Слой_2" data-name="Слой 2"><g id="Layer_1" data-name="Layer 1"><path class="cls-1" d="M.55,11.21C.94,5,4.25,1.16,10,.2A27.8,27.8,0,0,1,14.5,0H223.35c8.9,0,12.76,3,14.07,11.2Z"/><path class="cls-1" d="M63.66,66.72h-6.9V19.47h6.9Z"/><path class="cls-1" d="M180.87,66.73H174V19.46h6.88Z"/><path class="cls-1" d="M216.28,106.77c-3.64-.25-5.46-1.71-5.38-5.57.14-6.33,0-12.66,0-19,0-7.13-.32-7.46-7.27-7.46H119.2c-28.66,0-57.32.07-86-.06-4.7,0-6.67,1.55-6.48,6.38.26,6.65,0,13.33.09,20,.06,4-1.64,5.59-5.71,5.66C7.42,107,.05,114.65,0,128.41q0,28,0,56c0,13.17,7.87,21.24,21.06,21.33,4.51,0,5.85,2,5.75,6.06-.15,6,0,12,0,18,0,7.5.42,7.93,7.9,7.94H179.17c7.83,0,15.66.08,23.49,0,5.76-.08,8.18-2.57,8.26-8.27.08-6,.15-12,0-18-.12-4.09,1.65-5.59,5.63-5.74,14.23-.56,21.18-7.91,21.2-22.13q0-26.74,0-53.48C237.72,114.34,231.8,107.85,216.28,106.77ZM53.35,99,86.3,99h97.35c1.17,0,2.59-.41,3.45.1a37.89,37.89,0,0,1,4.72,3.92,39.79,39.79,0,0,1-4.49,3.65c-.72.45-2,.09-3,.09q-65.4,0-130.8,0c-3.13,0-7.57,1.1-7.51-4C46.13,98,50.35,99,53.35,99Zm110.58,69.82c-.2,8.42-5.64,13.9-14.12,14.27a52.93,52.93,0,0,1-5.49,0c-7.88-.49-13.32-6-13.46-13.87q-.21-13,0-26c.17-9.1,6.4-14.24,16.83-14.19,10,0,16,5.3,16.23,14.31.11,4.33,0,8.66,0,13C163.94,160.51,164,164.67,163.93,168.83Zm-78.74-8.74c0,5.77,0,11.38,0,17,0,2.68.22,5.79-3.64,5.87s-3.82-2.89-3.82-5.67q0-21.24,0-42.47c0-2.69.27-5.42,3.54-5.53,3.63-.12,4,2.79,3.94,5.65,0,5.61,0,11.22,0,17.1H104.1V138.3c0-1.67-.5-3.6.18-4.93.83-1.64,2.65-2.78,4-4.14,1.16,1.4,3.24,2.75,3.33,4.22.38,6.3.18,12.64.18,19,0,8.49.19,17-.17,25.47-.07,1.74-2,4.52-3.45,4.85-3.19.71-4.08-2-4.09-4.8,0-5.8,0-11.6,0-17.85ZM34.44,183.27v-.19c-2.67,0-5.43.43-8-.17-1.44-.34-2.49-2.36-3.72-3.63,1.3-1.19,2.49-3.22,3.92-3.41,3.77-.49,7.65-.11,11.47-.22a26.56,26.56,0,0,0,5.91-.73c3.52-.92,5.95-3.07,6-7s-2.17-6.2-5.7-7.21a31.27,31.27,0,0,0-5.89-.9c-9-.83-15.37-6.7-15.69-14.53-.34-8.23,5-14.49,14.19-15.71a92.9,92.9,0,0,1,16.93-.33c1.36.07,2.61,2.31,3.91,3.56-1.4,1.31-2.67,3.56-4.22,3.76-4.09.54-8.3.11-12.47.24-1.79,0-4.07-.07-5.27.93-2.25,1.87-5.53,4.65-5.33,6.76.25,2.55,3.29,5.39,5.83,7,2.06,1.29,5.17.88,7.79,1.31,8,1.32,13.59,7.4,13.65,14.85s-5.72,14-13.9,15.12C40.79,183.2,37.6,183.12,34.44,183.27ZM188.53,213c-1.19.63-2.93.27-4.43.27h-133c-2.69,0-5.27-.45-5.16-3.89s2.74-3.61,5.41-3.61q33.74,0,67.48,0h65.48c1.33,0,2.9-.4,3.93.17,1.4.75,3.23,2.22,3.29,3.45S189.88,212.24,188.53,213Zm26.39-67.31c-.42,7.52-6.25,13.4-14.26,14.09-3.43.29-6.91,0-11,0v17.85c0,2.68-.41,5.22-3.82,5.27s-3.93-2.37-3.92-5.12c0-14.46,0-28.93,0-43.39,0-3.15,1.19-5.29,4.53-5.28,5.3,0,10.68-.19,15.89.63C210.6,131,215.38,137.53,214.92,145.66Z"/><path class="cls-1" d="M138.45,156.12c0-4.15-.17-8.31,0-12.46.25-5,2.56-6.81,8.33-6.87,6.75-.07,9.31,1.51,9.46,6.74q.38,12.69,0,25.4c-.16,5.09-3.07,6.9-9.57,6.75-5.6-.13-7.86-2.07-8.25-7.1,0-.34,0-.67,0-1V156.12Z"/><path class="cls-1" d="M190,136.84c3.45,0,6.6-.19,9.71,0,4.59.35,7.87,3.62,7.68,7.66-.21,4.47-2.8,7.1-7.21,7.49-3.27.29-6.58.05-10.18.05Z"/></g></g></svg>