<svg xmlns="http://www.w3.org/2000/svg" viewBox="0 0 89.97 81.68"><defs><style>.cls-1{fill:#f2f2f2;}.cls-2{fill:#ccc;}</style></defs><g id="Слой_2" data-name="Слой 2"><g id="Слой_3" data-name="Слой 3"><path class="cls-1" d="M22.33,63.74l-3.48-1.37a39.46,39.46,0,0,1-4.58-38.14C23,2.28,47.8-3.17,62.61,1.6S89.33,21.34,89.93,36.06s-5,28.09-18.21,36.51a39.22,39.22,0,0,1-22,6.05l2.16-1.92a40.7,40.7,0,0,0,18.26-5.57C79,65.77,87.72,55.21,88.06,41.43a49.41,49.41,0,0,1-2,6.63A12.3,12.3,0,0,0,85,51.43s-.85,2.8-2.25,2.46-1.92-2.42-1.58-4.17.13-5.74-1-7.44.21-4.85.21-4.85.05-2.73-.93-3.54-2.21-1.61-2-3.61-.6-2.05-.6-2.05.26.94-1.82.05c0,0-1-.56-2.64,1.23a4,4,0,0,1-3.62,1.36L64,27.43a4.93,4.93,0,0,0-1.74-1.49c-.81-.26-.13-2.73-.13-2.73s-.6-3.57-2-5,1-2.59,1-2.59l-.26-1.32s3.58-3.49,4.94-3.7a1.53,1.53,0,0,1,1.75,1l1.36-.17,2.25,1.06a1.68,1.68,0,0,1,1.28-.89c.81,0,2-.47.85-1.49s-1.66-1.79-3.83-1.37l.51.69a.9.9,0,0,1-1.4-.09A7.51,7.51,0,0,0,65.93,8l.64,1a1.41,1.41,0,0,1-1.24-.26c-.59-.46-1.95-1.87-3.23-.34s-.17,2-.17,2-.21,2.21-2.68,1.06-1.83-2.08-.85-2.72-1.28-1.28-1.28-1.28,1.06-1.57-2-1.45c0,0-3.07-1-1.53-1.87s2.59,1,2.59,1,1.75-.17.68-1.36-3.36.6-4.51-2c0,0-6.85-.08-9.19.77,0,0,.38.29-.3,1a11,11,0,0,0-1.4,2.25s-.77,1.41-1.24,1-.59-.89-1.1-1.32a13,13,0,0,1-1.32-1.44l-2.6,1.15s1.53,1,.94,1.53-1.54.59-2.93.45a6.41,6.41,0,0,0-2.12,2.11,2.4,2.4,0,0,1-2.22,1.22s-.53.95-.32,1.12,1.24,0,1.24,0,.72,1.1.42,1.69c0,0,.89.4,1-1.13a2.32,2.32,0,0,1,1.39-2,3.62,3.62,0,0,0,.48-1.6c-.1-.56,1.83.14,1.83.14s.85.21,1,.07.55.72.32,1.1c0,0,1-.66,2.76,1.72,0,0,.9,1.05-.79,1.12,0,0-.64-.74-1.2-.59a16.31,16.31,0,0,0-1.84.73s-.41.21.29.72a5,5,0,0,0,1.25.69,4.9,4.9,0,0,1-1.95,1.7s-1.07-.43-1.32.21a.94.94,0,0,0,.06,1,20.6,20.6,0,0,1-2.28,2.55,6.42,6.42,0,0,0-1.53,3.64,17,17,0,0,1-1,2.2c-.46.75.45,2,.45,2a1.28,1.28,0,0,1-.53,1.23,9,9,0,0,0-.47-2.23c-.29-.42-1.39-1.77-3.79.69s-2.09,5.71-1.66,6.41,1.17,1.2,2.14-.88,1.37-1.32,1.37-1.32a3.89,3.89,0,0,1-.06,2.81l.08.46s1.66,0,1.9.43a3,3,0,0,1,.19,1.28l.37.46s0,1.53.94,1.56,3.22-1,5.09-3.09a6,6,0,0,1,2,0,3.81,3.81,0,0,1,2.68-.61s.51,0,.62-.06a7,7,0,0,0,4.29,1.53c2.91.18,2.73,3.16,2.64,3.54s-.34,1.82.38,1.74.83-.73,1.5-1,1,.21,2-.21,2,.61,4.61.26,3.11,3.36,1.88,5.68-.81,6.41-.57,6.8-.18,1.42-1.17,2-1.15,2.46-1.15,2.46l-11.68.08s-.19-1.83-4.61-3.38A4.39,4.39,0,0,1,36,51.07a2.28,2.28,0,0,0-2.76-1.89s-2.89-1.78-.66-7.42c0,0,.58-4.22-2.46-2L28,39.19s-.26-1.3-1.95-1c0,0-.25-1.88-3.89-1.45,0,0-3-.62-2.87-5.09,0,0-.29-2.48-.85-3,0,0-.62-.25-.67,2.28,0,0,0,.55-.81.55,0,0-.47-.83.14-2.76a7,7,0,0,0-.21-4.06,5.39,5.39,0,0,1,1.68-3.54s.83-1.31.64-2a36.74,36.74,0,0,0-5.79,16.27A38.64,38.64,0,0,0,22.33,63.74Z"/><path class="cls-2" d="M11,27.3s-1.53,5.87-1.28,7.06c0,0-6,10.64-1.78,19.66S20,66.19,31.12,66.62c0,0,6.13-.51,7.06-.85L34,60.11l34.36-.9S45.12,80.91,42.69,81.68l-1-6.3S19.46,80.74,5.59,65.85,7.63,30.36,11,27.3Z"/></g></g></svg>